<svg width="80" height="80" viewBox="0 0 80 80" fill="none" xmlns="http://www.w3.org/2000/svg">
<rect x="0.5" y="0.5" width="79" height="79" rx="39.5" fill="white"/>
<path d="M55.8333 45.8334C56.2999 45.8334 56.6666 46.2 56.6666 46.6667V48.3334C56.6666 51.1 54.4333 53.3334 51.6666 53.3334C51.6666 50.5834 49.4166 48.3334 46.6666 48.3334C43.9166 48.3334 41.6666 50.5834 41.6666 53.3334H38.3333C38.3333 50.5834 36.0833 48.3334 33.3333 48.3334C30.5833 48.3334 28.3333 50.5834 28.3333 53.3334C25.5666 53.3334 23.3333 51.1 23.3333 48.3334V45C23.3333 44.0834 24.0833 43.3334 24.9999 43.3334H40.8333C43.1333 43.3334 44.9999 41.4667 44.9999 39.1667V30C44.9999 29.0834 45.7499 28.3334 46.6666 28.3334H48.0666C49.2666 28.3334 50.3666 28.9834 50.9666 30.0167L52.0333 31.8834C52.1833 32.15 51.9833 32.5 51.6666 32.5C49.3666 32.5 47.4999 34.3667 47.4999 36.6667V41.6667C47.4999 43.9667 49.3666 45.8334 51.6666 45.8334H55.8333Z" fill="url(#paint0_linear_47_793)"/>
<path d="M33.3333 56.6667C35.1743 56.6667 36.6667 55.1743 36.6667 53.3333C36.6667 51.4924 35.1743 50 33.3333 50C31.4924 50 30 51.4924 30 53.3333C30 55.1743 31.4924 56.6667 33.3333 56.6667Z" fill="url(#paint1_linear_47_793)"/>
<path d="M46.6666 56.6667C48.5075 56.6667 49.9999 55.1743 49.9999 53.3333C49.9999 51.4924 48.5075 50 46.6666 50C44.8256 50 43.3333 51.4924 43.3333 53.3333C43.3333 55.1743 44.8256 56.6667 46.6666 56.6667Z" fill="url(#paint2_linear_47_793)"/>
<path d="M56.6667 40.8833V43.3333H51.6667C50.75 43.3333 50 42.5833 50 41.6667V36.6667C50 35.75 50.75 35 51.6667 35H53.8167L56.2333 39.2333C56.5167 39.7333 56.6667 40.3 56.6667 40.8833Z" fill="url(#paint3_linear_47_793)"/>
<path d="M41.8002 23.3334H29.4835C26.5002 23.3334 24.0002 25.4667 23.4502 28.3H30.7335C31.3668 28.3 31.8668 28.8167 31.8668 29.45C31.8668 30.0834 31.3668 30.5834 30.7335 30.5834H23.3335V32.8834H27.6668C28.3002 32.8834 28.8168 33.4 28.8168 34.0334C28.8168 34.6667 28.3002 35.1667 27.6668 35.1667H23.3335V37.4667H24.6168C25.2502 37.4667 25.7668 37.9834 25.7668 38.6167C25.7668 39.25 25.2502 39.75 24.6168 39.75H23.3335V40.1334C23.3335 41.05 24.0835 41.8 25.0002 41.8H40.2502C41.9502 41.8 43.3335 40.4167 43.3335 38.7167V24.8667C43.3335 24.0167 42.6502 23.3334 41.8002 23.3334Z" fill="url(#paint4_linear_47_793)"/>
<path d="M23.4501 28.3H23.2001H21.5667C20.9334 28.3 20.4167 28.8167 20.4167 29.45C20.4167 30.0834 20.9334 30.5834 21.5667 30.5834H23.0834H23.3334V29.4834C23.3334 29.0834 23.3834 28.6834 23.4501 28.3Z" fill="url(#paint5_linear_47_793)"/>
<path d="M23.0834 32.8834H21.5667C20.9334 32.8834 20.4167 33.4001 20.4167 34.0334C20.4167 34.6668 20.9334 35.1668 21.5667 35.1668H23.0834H23.3334V32.8834H23.0834Z" fill="url(#paint6_linear_47_793)"/>
<path d="M23.0834 37.4667H21.5667C20.9334 37.4667 20.4167 37.9833 20.4167 38.6167C20.4167 39.25 20.9334 39.75 21.5667 39.75H23.0834H23.3334V37.4667H23.0834Z" fill="url(#paint7_linear_47_793)"/>
<rect x="0.5" y="0.5" width="79" height="79" rx="39.5" stroke="url(#paint8_linear_47_793)"/>
<defs>
<linearGradient id="paint0_linear_47_793" x1="23.3333" y1="40.8334" x2="56.6666" y2="40.8334" gradientUnits="userSpaceOnUse">
<stop stop-color="#FF3636"/>
<stop offset="1" stop-color="#FFC700"/>
</linearGradient>
<linearGradient id="paint1_linear_47_793" x1="30" y1="53.3333" x2="36.6667" y2="53.3333" gradientUnits="userSpaceOnUse">
<stop stop-color="#FF3636"/>
<stop offset="1" stop-color="#FFC700"/>
</linearGradient>
<linearGradient id="paint2_linear_47_793" x1="43.3333" y1="53.3333" x2="49.9999" y2="53.3333" gradientUnits="userSpaceOnUse">
<stop stop-color="#FF3636"/>
<stop offset="1" stop-color="#FFC700"/>
</linearGradient>
<linearGradient id="paint3_linear_47_793" x1="50" y1="39.1667" x2="56.6667" y2="39.1667" gradientUnits="userSpaceOnUse">
<stop stop-color="#FF3636"/>
<stop offset="1" stop-color="#FFC700"/>
</linearGradient>
<linearGradient id="paint4_linear_47_793" x1="23.3335" y1="32.5667" x2="43.3335" y2="32.5667" gradientUnits="userSpaceOnUse">
<stop stop-color="#FF3636"/>
<stop offset="1" stop-color="#FFC700"/>
</linearGradient>
<linearGradient id="paint5_linear_47_793" x1="20.4167" y1="29.4417" x2="23.4501" y2="29.4417" gradientUnits="userSpaceOnUse">
<stop stop-color="#FF3636"/>
<stop offset="1" stop-color="#FFC700"/>
</linearGradient>
<linearGradient id="paint6_linear_47_793" x1="20.4167" y1="34.0251" x2="23.3334" y2="34.0251" gradientUnits="userSpaceOnUse">
<stop stop-color="#FF3636"/>
<stop offset="1" stop-color="#FFC700"/>
</linearGradient>
<linearGradient id="paint7_linear_47_793" x1="20.4167" y1="38.6083" x2="23.3334" y2="38.6083" gradientUnits="userSpaceOnUse">
<stop stop-color="#FF3636"/>
<stop offset="1" stop-color="#FFC700"/>
</linearGradient>
<linearGradient id="paint8_linear_47_793" x1="0" y1="40" x2="80" y2="40" gradientUnits="userSpaceOnUse">
<stop stop-color="#FF3636"/>
<stop offset="1" stop-color="#FFC700"/>
</linearGradient>
</defs>
</svg>
