<svg width="80" height="80" viewBox="0 0 80 80" fill="none" xmlns="http://www.w3.org/2000/svg">
<rect x="0.5" y="0.5" width="79" height="79" rx="39.5" fill="white"/>
<path d="M47.0834 57.5C48.6942 57.5 50.0001 56.1941 50.0001 54.5833C50.0001 52.9725 48.6942 51.6666 47.0834 51.6666C45.4726 51.6666 44.1667 52.9725 44.1667 54.5833C44.1667 56.1941 45.4726 57.5 47.0834 57.5Z" fill="url(#paint0_linear_47_782)"/>
<path d="M33.7499 57.5C35.3607 57.5 36.6666 56.1941 36.6666 54.5833C36.6666 52.9725 35.3607 51.6666 33.7499 51.6666C32.1391 51.6666 30.8333 52.9725 30.8333 54.5833C30.8333 56.1941 32.1391 57.5 33.7499 57.5Z" fill="url(#paint1_linear_47_782)"/>
<path d="M28.0666 26.5667L27.7333 30.65C27.6666 31.4334 28.2833 32.0834 29.0666 32.0834H54.5833C55.2833 32.0834 55.8666 31.55 55.9166 30.85C56.1333 27.9 53.8833 25.5 50.9333 25.5H30.4499C30.2833 24.7667 29.9499 24.0667 29.4333 23.4834C28.5999 22.6 27.4333 22.0834 26.2333 22.0834H23.3333C22.6499 22.0834 22.0833 22.65 22.0833 23.3334C22.0833 24.0167 22.6499 24.5834 23.3333 24.5834H26.2333C26.7499 24.5834 27.2333 24.8 27.5833 25.1667C27.9333 25.55 28.0999 26.05 28.0666 26.5667Z" fill="url(#paint2_linear_47_782)"/>
<path d="M54.1833 34.5834H28.6166C27.9166 34.5834 27.3499 35.1167 27.2833 35.8L26.6833 43.05C26.4499 45.9 28.6833 48.3334 31.5333 48.3334H50.0666C52.5666 48.3334 54.7666 46.2834 54.9499 43.7834L55.4999 36C55.5666 35.2334 54.9666 34.5834 54.1833 34.5834Z" fill="url(#paint3_linear_47_782)"/>
<rect x="0.5" y="0.5" width="79" height="79" rx="39.5" stroke="url(#paint4_linear_47_782)"/>
<defs>
<linearGradient id="paint0_linear_47_782" x1="44.1667" y1="54.5833" x2="50.0001" y2="54.5833" gradientUnits="userSpaceOnUse">
<stop stop-color="#FF3636"/>
<stop offset="1" stop-color="#FFC700"/>
</linearGradient>
<linearGradient id="paint1_linear_47_782" x1="30.8333" y1="54.5833" x2="36.6666" y2="54.5833" gradientUnits="userSpaceOnUse">
<stop stop-color="#FF3636"/>
<stop offset="1" stop-color="#FFC700"/>
</linearGradient>
<linearGradient id="paint2_linear_47_782" x1="22.0833" y1="27.0834" x2="55.931" y2="27.0834" gradientUnits="userSpaceOnUse">
<stop stop-color="#FF3636"/>
<stop offset="1" stop-color="#FFC700"/>
</linearGradient>
<linearGradient id="paint3_linear_47_782" x1="26.6665" y1="41.4584" x2="55.505" y2="41.4584" gradientUnits="userSpaceOnUse">
<stop stop-color="#FF3636"/>
<stop offset="1" stop-color="#FFC700"/>
</linearGradient>
<linearGradient id="paint4_linear_47_782" x1="0" y1="40" x2="80" y2="40" gradientUnits="userSpaceOnUse">
<stop stop-color="#FF3636"/>
<stop offset="1" stop-color="#FFC700"/>
</linearGradient>
</defs>
</svg>
