<svg width="40" height="40" viewBox="0 0 40 40" fill="none" xmlns="http://www.w3.org/2000/svg">
<path d="M33.5 11.5667C33.5 12.4667 33.0167 13.2833 32.25 13.7L29.35 15.2667L26.8833 16.5833L21.7667 19.35C21.2167 19.65 20.6167 19.8 20 19.8C19.3833 19.8 18.7833 19.65 18.2333 19.35L7.75 13.7C6.98333 13.2833 6.5 12.4667 6.5 11.5667C6.5 10.6667 6.98333 9.85001 7.75 9.43334L11.0333 7.66668L13.65 6.25001L18.2333 3.78334C19.3333 3.18334 20.6667 3.18334 21.7667 3.78334L32.25 9.43334C33.0167 9.85001 33.5 10.6667 33.5 11.5667Z" fill="url(#paint0_linear_221_276)"/>
<path d="M16.5 21.3167L6.74999 16.45C5.99999 16.0667 5.13333 16.1167 4.41666 16.55C3.69999 16.9833 3.28333 17.75 3.28333 18.5833V27.8C3.28333 29.4 4.16666 30.8333 5.59999 31.55L15.35 36.4167C15.6833 36.5833 16.05 36.6667 16.4167 36.6667C16.85 36.6667 17.2833 36.55 17.6667 36.3C18.3833 35.8667 18.8 35.1 18.8 34.2667V25.05C18.8167 23.4667 17.9333 22.0333 16.5 21.3167Z" fill="url(#paint1_linear_221_276)"/>
<path d="M36.7167 18.5833V27.8C36.7167 29.3833 35.8333 30.8167 34.4 31.5333L24.65 36.4167C24.3167 36.5833 23.95 36.6667 23.5833 36.6667C23.15 36.6667 22.7167 36.55 22.3167 36.3C21.6167 35.8667 21.1833 35.1 21.1833 34.2667V25.0667C21.1833 23.4667 22.0667 22.0333 23.5 21.3167L27.0833 19.5333L29.5834 18.2833L33.25 16.45C34 16.0667 34.8667 16.1 35.5834 16.55C36.2834 16.9833 36.7167 17.75 36.7167 18.5833Z" fill="url(#paint2_linear_221_276)"/>
<path d="M29.35 15.2667L26.8833 16.5833L11.0333 7.66667L13.65 6.25L28.95 14.8833C29.1167 14.9833 29.25 15.1167 29.35 15.2667Z" fill="white"/>
<path d="M29.5834 18.2833V22.0667C29.5834 22.75 29.0167 23.3167 28.3334 23.3167C27.65 23.3167 27.0834 22.75 27.0834 22.0667V19.5333L29.5834 18.2833Z" fill="white"/>
<defs>
<linearGradient id="paint0_linear_221_276" x1="6.5" y1="11.5667" x2="33.5" y2="11.5667" gradientUnits="userSpaceOnUse">
<stop stop-color="#FF3636"/>
<stop offset="1" stop-color="#FFC700"/>
</linearGradient>
<linearGradient id="paint1_linear_221_276" x1="3.28333" y1="26.4289" x2="18.8002" y2="26.4289" gradientUnits="userSpaceOnUse">
<stop stop-color="#FF3636"/>
<stop offset="1" stop-color="#FFC700"/>
</linearGradient>
<linearGradient id="paint2_linear_221_276" x1="21.1833" y1="26.4261" x2="36.7167" y2="26.4261" gradientUnits="userSpaceOnUse">
<stop stop-color="#FF3636"/>
<stop offset="1" stop-color="#FFC700"/>
</linearGradient>
</defs>
</svg>
