<svg width="80" height="80" viewBox="0 0 80 80" fill="none" xmlns="http://www.w3.org/2000/svg">
<rect x="0.5" y="0.5" width="79" height="79" rx="39.5" fill="white"/>
<path d="M45.3667 30.9166H29.6334C29.1667 30.9166 28.7334 30.9333 28.3334 30.95C24.3834 31.1833 23.3334 32.6333 23.3334 37.1333V38.1C23.3334 39.0166 24.0834 39.7666 25 39.7666H50C50.9167 39.7666 51.6667 39.0166 51.6667 38.1V37.1333C51.6667 32.1666 50.4 30.9166 45.3667 30.9166Z" fill="url(#paint0_linear_47_764)"/>
<path d="M25 42.2668C24.0834 42.2668 23.3334 43.0168 23.3334 43.9335V48.7835C23.3334 53.7502 24.6 55.0002 29.6334 55.0002H45.3667C50.3167 55.0002 51.6167 53.8002 51.6667 49.0502V43.9335C51.6667 43.0168 50.9167 42.2668 50 42.2668H25ZM31.6 50.9335H28.75C28.0667 50.9335 27.5 50.3668 27.5 49.6835C27.5 49.0002 28.0667 48.4335 28.75 48.4335H31.6167C32.3 48.4335 32.8667 49.0002 32.8667 49.6835C32.8667 50.3668 32.3 50.9335 31.6 50.9335ZM40.9167 50.9335H35.1834C34.5 50.9335 33.9334 50.3668 33.9334 49.6835C33.9334 49.0002 34.5 48.4335 35.1834 48.4335H40.9167C41.6 48.4335 42.1667 49.0002 42.1667 49.6835C42.1667 50.3668 41.6167 50.9335 40.9167 50.9335Z" fill="url(#paint1_linear_47_764)"/>
<path d="M56.6667 42.2168V33.4835C56.6667 28.2668 53.6833 26.0001 49.1833 26.0001H34.3C33.0334 26.0001 31.9 26.1835 30.9 26.5668C30.1167 26.8501 29.4167 27.2668 28.85 27.8168C28.55 28.1001 28.7834 28.5668 29.2167 28.5668H47.3333C51.0833 28.5668 54.1167 31.6001 54.1167 35.3501V47.3001C54.1167 47.7168 54.5667 47.9501 54.8667 47.6501C56.0167 46.4335 56.6667 44.6501 56.6667 42.2168Z" fill="url(#paint2_linear_47_764)"/>
<rect x="0.5" y="0.5" width="79" height="79" rx="39.5" stroke="url(#paint3_linear_47_764)"/>
<defs>
<linearGradient id="paint0_linear_47_764" x1="23.3334" y1="35.3416" x2="51.6667" y2="35.3416" gradientUnits="userSpaceOnUse">
<stop stop-color="#FF3636"/>
<stop offset="1" stop-color="#FFC700"/>
</linearGradient>
<linearGradient id="paint1_linear_47_764" x1="23.3334" y1="48.6335" x2="51.6667" y2="48.6335" gradientUnits="userSpaceOnUse">
<stop stop-color="#FF3636"/>
<stop offset="1" stop-color="#FFC700"/>
</linearGradient>
<linearGradient id="paint2_linear_47_764" x1="28.7148" y1="36.893" x2="56.6667" y2="36.893" gradientUnits="userSpaceOnUse">
<stop stop-color="#FF3636"/>
<stop offset="1" stop-color="#FFC700"/>
</linearGradient>
<linearGradient id="paint3_linear_47_764" x1="0" y1="40" x2="80" y2="40" gradientUnits="userSpaceOnUse">
<stop stop-color="#FF3636"/>
<stop offset="1" stop-color="#FFC700"/>
</linearGradient>
</defs>
</svg>
