<svg width="40" height="37" viewBox="0 0 40 37" fill="none" xmlns="http://www.w3.org/2000/svg">
<path d="M15.5334 20.1457H20.6834V31.0678C20.6834 32.6758 22.8834 33.4342 24.0501 32.2207L36.6667 19.1749C37.7667 18.0372 36.8834 16.2623 35.2167 16.2623H30.0667V5.34029C30.0667 3.73232 27.8667 2.97385 26.7001 4.18741L14.0834 17.2332C13.0001 18.3709 13.8834 20.1457 15.5334 20.1457Z" fill="url(#paint0_linear_44_1038)"/>
<path d="M14.1667 7.2056H2.5C1.81667 7.2056 1.25 6.68984 1.25 6.06789C1.25 5.44594 1.81667 4.93018 2.5 4.93018H14.1667C14.85 4.93018 15.4167 5.44594 15.4167 6.06789C15.4167 6.68984 14.85 7.2056 14.1667 7.2056Z" fill="url(#paint1_linear_44_1038)"/>
<path d="M12.5 31.4766H2.5C1.81667 31.4766 1.25 30.9608 1.25 30.3389C1.25 29.7169 1.81667 29.2012 2.5 29.2012H12.5C13.1833 29.2012 13.75 29.7169 13.75 30.3389C13.75 30.9608 13.1833 31.4766 12.5 31.4766Z" fill="url(#paint2_linear_44_1038)"/>
<path d="M7.5 19.3413H2.5C1.81667 19.3413 1.25 18.8256 1.25 18.2036C1.25 17.5817 1.81667 17.0659 2.5 17.0659H7.5C8.18333 17.0659 8.75 17.5817 8.75 18.2036C8.75 18.8256 8.18333 19.3413 7.5 19.3413Z" fill="url(#paint3_linear_44_1038)"/>
<defs>
<linearGradient id="paint0_linear_44_1038" x1="13.6069" y1="18.204" x2="37.1538" y2="18.204" gradientUnits="userSpaceOnUse">
<stop stop-color="#FF3636"/>
<stop offset="1" stop-color="#FFC700"/>
</linearGradient>
<linearGradient id="paint1_linear_44_1038" x1="1.25" y1="6.06789" x2="15.4167" y2="6.06789" gradientUnits="userSpaceOnUse">
<stop stop-color="#FF3636"/>
<stop offset="1" stop-color="#FFC700"/>
</linearGradient>
<linearGradient id="paint2_linear_44_1038" x1="1.25" y1="30.3389" x2="13.75" y2="30.3389" gradientUnits="userSpaceOnUse">
<stop stop-color="#FF3636"/>
<stop offset="1" stop-color="#FFC700"/>
</linearGradient>
<linearGradient id="paint3_linear_44_1038" x1="1.25" y1="18.2036" x2="8.75" y2="18.2036" gradientUnits="userSpaceOnUse">
<stop stop-color="#FF3636"/>
<stop offset="1" stop-color="#FFC700"/>
</linearGradient>
</defs>
</svg>
