<svg width="80" height="80" viewBox="0 0 80 80" fill="none" xmlns="http://www.w3.org/2000/svg">
<path d="M0 40C0 17.9086 17.9086 0 40 0V0C62.0914 0 80 17.9086 80 40V40C80 62.0914 62.0914 80 40 80V80C17.9086 80 0 62.0914 0 40V40Z" fill="white"/>
<path d="M38.3333 23.3167C30.05 23.3167 23.3167 30.05 23.3167 38.3333C23.3167 46.6167 30.05 53.35 38.3333 53.35C46.6167 53.35 53.35 46.6167 53.35 38.3333C53.35 30.05 46.6167 23.3167 38.3333 23.3167ZM38.3333 42.0833H33.3333C32.65 42.0833 32.0833 41.5167 32.0833 40.8333C32.0833 40.15 32.65 39.5833 33.3333 39.5833H38.3333C39.0167 39.5833 39.5833 40.15 39.5833 40.8333C39.5833 41.5167 39.0167 42.0833 38.3333 42.0833ZM43.3333 37.0833H33.3333C32.65 37.0833 32.0833 36.5167 32.0833 35.8333C32.0833 35.15 32.65 34.5833 33.3333 34.5833H43.3333C44.0167 34.5833 44.5833 35.15 44.5833 35.8333C44.5833 36.5167 44.0167 37.0833 43.3333 37.0833Z" fill="url(#paint0_linear_47_698)"/>
<path d="M56.65 51.5833C56.1 50.5667 54.9334 50 53.3667 50C52.1834 50 51.1667 50.4833 50.5667 51.3167C49.9667 52.15 49.8334 53.2667 50.2 54.3833C50.9167 56.55 52.1667 57.0333 52.85 57.1167C52.95 57.1333 53.05 57.1333 53.1667 57.1333C53.9 57.1333 55.0334 56.8167 56.1334 55.1667C57.0167 53.8833 57.1834 52.6 56.65 51.5833Z" fill="url(#paint1_linear_47_698)"/>
<path d="M40 79C18.4609 79 1 61.5391 1 40H-1C-1 62.6437 17.3563 81 40 81V79ZM79 40C79 61.5391 61.5391 79 40 79V81C62.6437 81 81 62.6437 81 40H79ZM40 1C61.5391 1 79 18.4609 79 40H81C81 17.3563 62.6437 -1 40 -1V1ZM40 -1C17.3563 -1 -1 17.3563 -1 40H1C1 18.4609 18.4609 1 40 1V-1Z" fill="url(#paint2_linear_47_698)"/>
<defs>
<linearGradient id="paint0_linear_47_698" x1="23.3167" y1="38.3333" x2="53.35" y2="38.3333" gradientUnits="userSpaceOnUse">
<stop stop-color="#FF3636"/>
<stop offset="1" stop-color="#FFC700"/>
</linearGradient>
<linearGradient id="paint1_linear_47_698" x1="49.9967" y1="53.5667" x2="56.9539" y2="53.5667" gradientUnits="userSpaceOnUse">
<stop stop-color="#FF3636"/>
<stop offset="1" stop-color="#FFC700"/>
</linearGradient>
<linearGradient id="paint2_linear_47_698" x1="0" y1="40" x2="80" y2="40" gradientUnits="userSpaceOnUse">
<stop stop-color="#FF3636"/>
<stop offset="1" stop-color="#FFC700"/>
</linearGradient>
</defs>
</svg>
