<svg width="40" height="37" viewBox="0 0 40 37" fill="none" xmlns="http://www.w3.org/2000/svg">
<path d="M27.0833 34.1314C28.6941 34.1314 30 32.9428 30 31.4767C30 30.0106 28.6941 28.822 27.0833 28.822C25.4725 28.822 24.1666 30.0106 24.1666 31.4767C24.1666 32.9428 25.4725 34.1314 27.0833 34.1314Z" fill="url(#paint0_linear_44_1574)"/>
<path d="M13.75 34.1314C15.3609 34.1314 16.6667 32.9428 16.6667 31.4767C16.6667 30.0106 15.3609 28.822 13.75 28.822C12.1392 28.822 10.8334 30.0106 10.8334 31.4767C10.8334 32.9428 12.1392 34.1314 13.75 34.1314Z" fill="url(#paint1_linear_44_1574)"/>
<path d="M8.06671 5.97684L7.73337 9.69337C7.66671 10.4063 8.28337 10.9979 9.06671 10.9979H34.5834C35.2834 10.9979 35.8667 10.5125 35.9167 9.87541C36.1334 7.1904 33.8834 5.00599 30.9334 5.00599H10.45C10.2834 4.33853 9.95004 3.70141 9.43337 3.17048C8.60004 2.3665 7.43337 1.89624 6.23337 1.89624H3.33337C2.65004 1.89624 2.08337 2.412 2.08337 3.03395C2.08337 3.6559 2.65004 4.17167 3.33337 4.17167H6.23337C6.75004 4.17167 7.23337 4.36887 7.58337 4.7026C7.93337 5.0515 8.10004 5.50658 8.06671 5.97684Z" fill="url(#paint2_linear_44_1574)"/>
<path d="M34.1833 13.2733H8.61659C7.91659 13.2733 7.34993 13.7587 7.28326 14.3807L6.68326 20.9794C6.44993 23.5734 8.68326 25.7882 11.5333 25.7882H30.0666C32.5666 25.7882 34.7666 23.9223 34.9499 21.6469L35.4999 14.5627C35.5666 13.8649 34.9666 13.2733 34.1833 13.2733Z" fill="url(#paint3_linear_44_1574)"/>
<defs>
<linearGradient id="paint0_linear_44_1574" x1="24.1666" y1="31.4767" x2="30" y2="31.4767" gradientUnits="userSpaceOnUse">
<stop stop-color="#FF3636"/>
<stop offset="1" stop-color="#FFC700"/>
</linearGradient>
<linearGradient id="paint1_linear_44_1574" x1="10.8334" y1="31.4767" x2="16.6667" y2="31.4767" gradientUnits="userSpaceOnUse">
<stop stop-color="#FF3636"/>
<stop offset="1" stop-color="#FFC700"/>
</linearGradient>
<linearGradient id="paint2_linear_44_1574" x1="2.08337" y1="6.4471" x2="35.9311" y2="6.4471" gradientUnits="userSpaceOnUse">
<stop stop-color="#FF3636"/>
<stop offset="1" stop-color="#FFC700"/>
</linearGradient>
<linearGradient id="paint3_linear_44_1574" x1="6.6665" y1="19.5307" x2="35.505" y2="19.5307" gradientUnits="userSpaceOnUse">
<stop stop-color="#FF3636"/>
<stop offset="1" stop-color="#FFC700"/>
</linearGradient>
</defs>
</svg>
